# xmcd
#
# Track frame offsets:
#	150
#	15935
#	39782
#	55661
#	72739
#	91402
#	115431
#	133767
#	152016
#	177802
#	197954
#	222257
#	242965
#	261908
#
# Disc length: 3696 seconds
#
# Revision: 0
# Processed by: cddbd v1.5.2PL0 Copyright (c) Steve Scherf et al.
# Submitted via: audiograbber 1.83.01
#
DISCID=c60e6e0e
DTITLE=Various Artist - Let's Step Outside (Great Country Songs About the Grea
DTITLE=t Outdoors)
DYEAR=2006
DGENRE=Country
TTITLE0=Honeybrowne - Take Me Home, Country Roads
TTITLE1=Kevin Fowler - Beer, Bait and Ammo
TTITLE2=Jack Ingram - The Fisherman
TTITLE3=Pat Green - West Texas Holiday
TTITLE4=Robert Earl Keen Jr - Five Pound Bass
TTITLE5=Jerry Jeff Walker - Keep Texas Beautiful
TTITLE6=Guy Clark - South Coast of Texas
TTITLE7=Jason Allen - John Boat Blues
TTITLE8=Roger Creager - I Got the Guns
TTITLE9=Gary P. Nunn - My Kind of Day on Padre
TTITLE10=Randy Rogers Band - They Call It the Hill Country
TTITLE11=James McMurtry (with Joe Ely) - Slew Foot
TTITLE12=Cory Morrow - Dancy By the Rio Grande
TTITLE13=Reckless Kelly - Snowfall
EXTD=
EXTT0=
EXTT1=
EXTT2=
EXTT3=
EXTT4=
EXTT5=
EXTT6=
EXTT7=
EXTT8=
EXTT9=
EXTT10=
EXTT11=
EXTT12=
EXTT13=
PLAYORDER=
